<svg width="132" height="43" viewBox="0 0 132 43" fill="none" xmlns="http://www.w3.org/2000/svg">
<path d="M22.3 42L12.1 24.18C11.42 24.94 10.72 25.7 10 26.46C9.32 27.22 8.6 28 7.84 28.8V42H0.64V1.2H7.84V20.58C10.88 17.1 13.48 13.8 15.64 10.68C17.8 7.52 19.66 4.36 21.22 1.2H29.08C27.36 4.64 25.52 7.9 23.56 10.98C21.64 14.02 19.6 16.84 17.44 19.44L31 42H22.3ZM61.1327 35.1V42H37.6127V1.2H44.8127V35.1H61.1327ZM96.5898 17.28V25.86C96.5898 31.06 95.2898 35.16 92.6898 38.16C90.0898 41.12 86.2898 42.6 81.2898 42.6C76.2498 42.6 72.4298 41.12 69.8298 38.16C67.2698 35.16 65.9898 31.06 65.9898 25.86V17.28C65.9898 12.08 67.2698 8 69.8298 5.04C72.4298 2.08 76.2498 0.599997 81.2898 0.599997C86.2898 0.599997 90.0898 2.08 92.6898 5.04C95.2898 8 96.5898 12.08 96.5898 17.28ZM89.2098 17.28C89.2098 14 88.5698 11.54 87.2898 9.9C86.0098 8.22 84.0098 7.38 81.2898 7.38C78.5698 7.38 76.5698 8.22 75.2898 9.9C74.0098 11.54 73.3698 14 73.3698 17.28V25.86C73.3698 29.14 74.0098 31.62 75.2898 33.3C76.5698 34.98 78.5698 35.82 81.2898 35.82C84.0098 35.82 86.0098 34.98 87.2898 33.3C88.5698 31.62 89.2098 29.14 89.2098 25.86V17.28ZM101.249 8.1V1.2H131.249V8.1H119.849V42H112.649V8.1H101.249Z" fill="black"/>
</svg>
