<svg width="93" height="33" viewBox="0 0 93 33" fill="none" xmlns="http://www.w3.org/2000/svg">
<g clip-path="url(#clip0_129_1599)">
<path d="M26.5553 26.6053C27.069 26.6053 27.4943 26.7792 27.8354 27.1229C28.1849 27.4666 28.3533 27.8952 28.3533 28.4044C28.3533 28.9135 28.1849 29.3336 27.8354 29.6858C27.4943 30.0295 27.069 30.2035 26.5553 30.2035H25.4479V32.0789H24.5552V26.6095H26.5553V26.6053ZM26.5553 29.3548C27.0817 29.3548 27.4606 28.956 27.4606 28.4001C27.4606 27.8443 27.0817 27.4454 26.5553 27.4454H25.4479V29.3506H26.5553V29.3548Z" fill="#103559"/>
<path d="M29.6969 30.513C29.826 31.0611 30.329 31.3625 31.0101 31.3625C31.4776 31.3625 31.8292 31.2099 32.0696 30.9163L32.7997 31.2921C32.399 31.8166 31.7981 32.0789 31.0057 32.0789C30.3424 32.0789 29.7993 31.8989 29.3897 31.5465C28.9802 31.1864 28.7754 30.7323 28.7754 30.1842C28.7754 29.6361 28.9802 29.1977 29.3808 28.8375C29.7815 28.4695 30.3068 28.2895 30.9389 28.2895C31.5354 28.2895 32.0296 28.4774 32.4124 28.8454C32.7997 29.2133 32.9956 29.6674 32.9956 30.192C32.9956 30.2703 32.9867 30.3799 32.9644 30.5169H29.7013L29.6969 30.513ZM32.1008 29.8788C31.9761 29.2955 31.5087 28.9902 30.93 28.9902C30.2756 28.9902 29.8171 29.3308 29.6924 29.8788H32.1008Z" fill="#103559"/>
<path d="M35.5277 28.9369H34.5591V30.8176C34.5591 31.3197 34.8862 31.3112 35.5277 31.2814V32.0431C34.2362 32.2005 33.7136 31.8474 33.7136 30.8219V28.9411H32.9956V28.1241H33.7136V27.2774L34.5591 27.0263V28.1241H35.5277V28.9411V28.9369Z" fill="#103559"/>
<path d="M37.6095 29.8452C38.1802 29.9667 38.9197 30.1979 38.9036 30.9699C38.9036 31.3148 38.7629 31.5891 38.4896 31.785C38.2163 31.981 37.8747 32.0789 37.4608 32.0789C36.7294 32.0789 36.1868 31.7615 35.9497 31.2364L36.6369 30.8484C36.7615 31.1933 37.0348 31.3696 37.4568 31.3696C37.8788 31.3696 38.0877 31.2325 38.0877 30.966C38.0877 30.7348 37.7783 30.5976 37.3844 30.5036C36.8298 30.3664 36.0823 30.1509 36.0984 29.3906C36.0984 29.0575 36.223 28.7911 36.4842 28.5912C36.7414 28.3874 37.071 28.2895 37.4528 28.2895C38.0677 28.2895 38.562 28.5716 38.8232 29.0419L38.148 29.4102C38.0234 29.1359 37.7863 28.9988 37.4528 28.9988C37.1514 28.9988 36.9142 29.1281 36.9142 29.3828C36.9142 29.6218 37.2237 29.7433 37.6095 29.8531V29.8452Z" fill="#103559"/>
<path d="M43.9681 27.4101C43.3032 27.356 42.9799 27.61 42.9799 28.1681V28.2431H43.9681V29.0428H42.9799V32.0789H42.0736V29.0428H41.436V28.2431H42.0736V28.1681C42.0736 27.1186 42.7294 26.5438 43.9681 26.6105V27.4101Z" fill="#103559"/>
<path d="M45.0067 31.5309C44.5985 31.1629 44.3901 30.7166 44.3901 30.1842C44.3901 29.6518 44.5985 29.2055 45.0067 28.8375C45.4148 28.4695 45.9184 28.2895 46.5002 28.2895C47.082 28.2895 47.5857 28.4695 47.9938 28.8375C48.4019 29.2055 48.6103 29.6518 48.6103 30.1842C48.6103 30.7166 48.4019 31.1629 47.9938 31.5309C47.5857 31.8989 47.0907 32.0789 46.5002 32.0789C45.9098 32.0789 45.4148 31.8989 45.0067 31.5309ZM46.5002 31.3234C46.8519 31.3234 47.1471 31.2138 47.3859 30.9985C47.6247 30.7832 47.7463 30.5091 47.7463 30.1842C47.7463 29.8593 47.6247 29.5852 47.3859 29.3699C47.1471 29.1546 46.8519 29.045 46.5002 29.045C46.1485 29.045 45.8533 29.1546 45.6145 29.3699C45.3757 29.5852 45.2541 29.8593 45.2541 30.1842C45.2541 30.5091 45.3757 30.7832 45.6145 30.9985C45.8533 31.2138 46.1485 31.3234 46.5002 31.3234Z" fill="#103559"/>
<path d="M49.9016 28.981C50.12 28.52 50.5394 28.2895 51.1423 28.2895V29.159C50.8147 29.1347 50.522 29.2115 50.2729 29.3814C50.0239 29.5472 49.9016 29.8222 49.9016 30.2024V32.0789H49.0322V28.3542H49.9016V28.981Z" fill="#103559"/>
<path d="M57.4725 30.5162C57.4725 30.9621 57.3228 31.3358 57.0195 31.6331C56.7161 31.9303 56.348 32.0789 55.9111 32.0789H53.6743V26.6053H55.7453C56.17 26.6053 56.5341 26.7539 56.8253 27.0426C57.1246 27.3314 57.2702 27.6923 57.2702 28.1212C57.2702 28.5968 57.0923 28.9663 56.7404 29.2381C57.1934 29.4886 57.4684 29.943 57.4684 30.512L57.4725 30.5162ZM54.5318 27.4503V28.8898H55.7453C56.1255 28.8898 56.4168 28.5756 56.4168 28.1722C56.4168 27.7688 56.1255 27.4545 55.7453 27.4545H54.5318V27.4503ZM55.9111 31.2339C56.3075 31.2339 56.619 30.8984 56.619 30.4695C56.619 30.0406 56.3075 29.7052 55.9111 29.7052H54.5318V31.2381H55.9111V31.2339Z" fill="#103559"/>
<path d="M59.2369 30.513C59.3659 31.0611 59.8684 31.3625 60.5488 31.3625C61.0157 31.3625 61.367 31.2099 61.6072 30.9163L62.3365 31.2921C61.9362 31.8166 61.3359 32.0789 60.5443 32.0789C59.8817 32.0789 59.3392 31.8989 58.9301 31.5465C58.521 31.1864 58.3164 30.7323 58.3164 30.1842C58.3164 29.6361 58.521 29.1977 58.9212 28.8375C59.3214 28.4695 59.8462 28.2895 60.4776 28.2895C61.0735 28.2895 61.5671 28.4774 61.954 28.8454C62.3409 29.2133 62.5366 29.6674 62.5366 30.192C62.5366 30.2703 62.5277 30.3799 62.5055 30.5169H59.2458L59.2369 30.513ZM61.6383 29.8788C61.5138 29.2955 61.0469 28.9902 60.4687 28.9902C59.815 28.9902 59.357 29.3308 59.2325 29.8788H61.6427H61.6383Z" fill="#103559"/>
<path d="M64.1964 29.8452C64.7671 29.9667 65.5066 30.1979 65.4905 30.9699C65.4905 31.3148 65.3498 31.5891 65.0765 31.785C64.8033 31.981 64.4617 32.0789 64.0477 32.0789C63.3163 32.0789 62.7737 31.7615 62.5366 31.2364L63.2238 30.8484C63.3484 31.1933 63.6217 31.3696 64.0437 31.3696C64.4657 31.3696 64.6747 31.2325 64.6747 30.966C64.6747 30.7348 64.3652 30.5976 63.9714 30.5036C63.4168 30.3664 62.6692 30.1509 62.6853 29.3906C62.6853 29.0575 62.8099 28.7911 63.0711 28.5912C63.3283 28.3874 63.6579 28.2895 64.0397 28.2895C64.6546 28.2895 65.1489 28.5716 65.4101 29.0419L64.7349 29.4102C64.6104 29.1359 64.3732 28.9988 64.0397 28.9988C63.7383 28.9988 63.5011 29.1281 63.5011 29.3828C63.5011 29.6218 63.8106 29.7433 64.1964 29.8531V29.8452Z" fill="#103559"/>
<path d="M68.4452 28.9369H67.4782V30.8176C67.4782 31.3197 67.8047 31.3112 68.4452 31.2814V32.0431C67.1558 32.2005 66.6341 31.8474 66.6341 30.8219V28.9411H65.9131V28.1241H66.6341V27.2774L67.4782 27.0263V28.1241H68.4452V28.9411V28.9369Z" fill="#103559"/>
<path d="M20.4909 3.07165C20.3804 1.98264 19.9429 1.76315 19.0933 1.76315H15.474C14.6797 1.76315 14.4885 1.89822 14.1869 2.77196L11.4725 11.598L8.75804 2.77196C8.45644 1.89822 8.26528 1.76315 7.47092 1.76315H3.84742C2.99783 1.76315 2.56029 1.98264 2.44985 3.07165L0.529778 20.3986C0.449067 21.0233 0.50429 21.2724 1.05227 21.3526L5.19402 21.952C5.82271 22.0322 5.9629 21.8971 6.04361 21.4328L6.94842 13.3159L8.89398 20.9178C9.08513 21.5425 9.33151 21.7916 9.96446 21.7916H12.9805C13.6092 21.7916 13.8598 21.5467 14.051 20.9178L15.971 13.3159L16.9013 21.4328C16.9821 21.8971 17.1222 22.0322 17.7509 21.952L21.8927 21.3526C22.4407 21.2724 22.4959 21.0276 22.4152 20.3986L20.4909 3.07165Z" fill="#103559"/>
<path d="M30.4634 6.39474C25.8152 6.39474 23.2891 9.58064 23.2891 13.9737C23.2891 18.3667 25.8152 21.5526 30.4634 21.5526C35.1115 21.5526 37.6377 18.3667 37.6377 13.9737C37.6377 9.58064 35.1115 6.39474 30.4634 6.39474ZM30.4634 16.5954C29.3477 16.5954 28.7498 15.55 28.7498 13.9695C28.7498 12.389 29.3477 11.3437 30.4634 11.3437C31.5791 11.3437 32.177 12.389 32.177 13.9695C32.177 15.55 31.5791 16.5954 30.4634 16.5954Z" fill="#103559"/>
<path d="M48.0615 6.40316C47.1086 6.40316 39.9792 6.59247 39.5154 7.24456C39.3257 7.46333 39.3257 7.76203 39.3257 8.27528L39.5449 20.1138C39.5702 21.1993 39.819 21.5526 40.7676 21.5526H44.0899C45.0427 21.5526 45.3126 21.1993 45.3126 20.1138V11.9396C45.7215 11.805 45.8564 11.7503 46.3202 11.7208C46.9442 11.6956 47.2435 11.8849 47.4375 12.3982C47.5724 12.9409 47.6019 13.757 47.6019 14.8677L47.5766 20.1096C47.5766 21.195 47.876 21.5484 48.8288 21.5484H52.2312C53.1841 21.5484 53.4286 21.195 53.4539 20.1096L53.6731 12.8862C53.6984 11.1192 53.319 9.49111 52.4209 8.29632C51.4681 7.10152 50.0515 6.39474 48.0657 6.39474L48.0615 6.40316Z" fill="#103559"/>
<path d="M60.8313 8.07895H57.4114C56.4757 8.07895 56.2065 8.40165 56.2065 9.48708V20.1194C56.2065 21.2006 56.4757 21.5526 57.4114 21.5526H60.8851C61.8208 21.5526 62.1148 21.2006 62.1148 20.1194L62.061 9.48708C62.061 8.43098 61.767 8.07895 60.8313 8.07895Z" fill="#103559"/>
<path d="M59.3717 0.921051C57.3462 0.921051 56.2065 2.16833 56.2065 3.86842C56.2065 5.56851 57.3462 6.81579 59.3717 6.81579C61.3972 6.81579 62.5368 5.56851 62.5368 3.86842C62.5368 2.16833 61.3972 0.921051 59.3717 0.921051Z" fill="#103559"/>
<path d="M74.0577 6.83575H71.954V3.17524C71.954 2.09096 71.6756 1.76315 70.7116 1.76315H67.4468C66.4785 1.76315 66.1743 2.11618 66.1743 3.17524V6.83575H64.5162C63.6036 6.83575 63.3809 6.99965 63.3809 7.84018V10.7988C63.3809 11.6394 63.6036 11.8033 64.5162 11.8033H66.1743V16.9557C66.1743 20.4271 68.0252 21.9737 71.5127 21.9737C72.5367 21.9737 73.5607 21.8938 74.529 21.7005C74.9446 21.6207 75.056 21.5114 75.056 21.1037L74.9189 16.9515C74.9189 16.5985 74.7261 16.464 74.3662 16.5439C74.062 16.6237 73.7578 16.6783 73.3422 16.6783C72.541 16.6783 71.9583 16.4052 71.9583 15.241V11.7949H74.062C74.9746 11.7949 75.1974 11.631 75.1974 10.7904V7.83177C75.1974 6.99125 74.9746 6.82734 74.062 6.82734L74.0577 6.83575Z" fill="#103559"/>
<path d="M83.2158 6.39474C78.5677 6.39474 76.0415 9.58064 76.0415 13.9737C76.0415 18.3667 78.5677 21.5526 83.2158 21.5526C87.864 21.5526 90.3901 18.3667 90.3901 13.9737C90.3901 9.58064 87.864 6.39474 83.2158 6.39474ZM83.2158 16.5954C82.1001 16.5954 81.5022 15.55 81.5022 13.9695C81.5022 12.389 82.1001 11.3437 83.2158 11.3437C84.3315 11.3437 84.9294 12.389 84.9294 13.9695C84.9294 15.55 84.3315 16.5954 83.2158 16.5954Z" fill="#103559"/>
<path d="M91.7242 6.98837C91.2365 6.63657 90.4378 6.83983 89.9334 7.4418C89.4289 8.04377 89.4163 8.81774 89.8997 9.16954C90.3874 9.52134 91.1861 9.31808 91.6905 8.71611C92.195 8.11413 92.2076 7.34017 91.7242 6.98837Z" fill="#103559"/>
<path d="M80.2483 5.96493C80.8215 5.87691 81.197 5.15177 81.0864 4.34281C80.9757 3.53384 80.4262 2.94702 79.853 3.03505C79.2798 3.12307 78.9043 3.84821 79.015 4.65717C79.1256 5.46614 79.6751 6.05296 80.2483 5.96493Z" fill="#103559"/>
<path d="M87.675 6.70874C88.4681 7.10905 89.6685 6.35194 90.352 5.01612C91.0355 3.6803 90.9478 2.27051 90.1505 1.8702C89.3575 1.46989 88.157 2.227 87.4735 3.56282C86.79 4.89864 86.8777 6.30843 87.675 6.70874Z" fill="#103559"/>
<path d="M83.5697 5.5458C84.3689 5.64752 85.1444 4.60073 85.2987 3.21067C85.453 1.81637 84.9307 0.608539 84.1276 0.506827C83.3284 0.405115 82.5529 1.4519 82.3986 2.84196C82.2443 4.23626 82.7665 5.44409 83.5697 5.5458Z" fill="#103559"/>
</g>
<defs>
<clipPath id="clip0_129_1599">
<rect width="92" height="32" fill="white" transform="translate(0.5 0.5)"/>
</clipPath>
</defs>
</svg>
