<svg width="24" height="24" viewBox="0 0 24 24" fill="none" xmlns="http://www.w3.org/2000/svg">
<path d="M7.50007 7.66999V6.69999C7.50007 4.44999 9.31007 2.23999 11.5601 2.02999C12.1852 1.96856 12.8164 2.03871 13.4128 2.23592C14.0092 2.43313 14.5577 2.75303 15.0231 3.17503C15.4884 3.59703 15.8602 4.11178 16.1146 4.68616C16.369 5.26053 16.5003 5.8818 16.5001 6.50999V7.88999M3.81007 16.56L4.04007 18.43C4.26007 20.39 4.98007 22 9.00007 22H15.0001C19.0201 22 19.7401 20.39 19.9501 18.43L20.7001 12.43C20.9701 9.98999 20.2701 7.99999 16.0001 7.99999H8.00007C3.73007 7.99999 3.03007 9.98999 3.30007 12.43" stroke="#272727" stroke-width="1.5" stroke-miterlimit="10" stroke-linecap="round" stroke-linejoin="round"/>
<path d="M15.4951 12H15.5041M8.49512 12H8.50312" stroke="#272727" stroke-width="2" stroke-linecap="round" stroke-linejoin="round"/>
</svg>
