<svg width="40" height="40" viewBox="0 0 40 40" fill="none" xmlns="http://www.w3.org/2000/svg">
<path d="M23.68 11.96C24.16 12.67 24.4401 13.52 24.4401 14.44C24.4301 16.84 22.54 18.79 20.16 18.87C20.06 18.86 19.94 18.86 19.83 18.87C17.62 18.8 15.83 17.11 15.59 14.95C15.3 12.38 17.41 10 19.99 10M14.99 22.56C12.57 24.18 12.57 26.82 14.99 28.43C17.74 30.27 22.25 30.27 25 28.43C27.42 26.81 27.42 24.17 25 22.56C22.27 20.73 17.76 20.73 14.99 22.56Z" stroke="#272727" stroke-opacity="0.5" stroke-width="1.5" stroke-linecap="round" stroke-linejoin="round"/>
</svg>
