<svg width="40" height="40" viewBox="0 0 40 40" fill="none" xmlns="http://www.w3.org/2000/svg">
<path d="M13.8291 14.6463V13.3363C13.8291 10.2975 16.3112 7.31274 19.3966 7.02912C20.2539 6.94617 21.1194 7.04091 21.9373 7.30726C22.7551 7.5736 23.5073 8.00565 24.1454 8.57559C24.7835 9.14553 25.2934 9.84073 25.6423 10.6165C25.9911 11.3922 26.1712 12.2313 26.1709 13.0797V14.9435M8.76903 26.6529L9.08443 29.1785C9.38612 31.8256 10.3735 34 15.8861 34H24.1139C29.6265 34 30.6139 31.8256 30.9019 29.1785L31.9303 21.075C32.3006 17.7797 31.3407 15.092 25.4852 15.092H14.5148C8.65933 15.092 7.69941 17.7797 8.06967 21.075" stroke="#272727" stroke-opacity="0.5" strokeWidth="1.5" stroke-miterlimit="10" stroke-linecap="round" stroke-linejoin="round"/>
<path d="M24.9872 20H25M15 20H15.0114" stroke="#272727" stroke-opacity="0.5" strokeWidth="2" stroke-linecap="round" stroke-linejoin="round"/>
</svg>
