<svg width="16" height="17" viewBox="0 0 16 17" fill="none" xmlns="http://www.w3.org/2000/svg">
<path d="M12.4001 1.90137C13.1334 1.90137 13.7334 2.50137 13.7334 3.2347V4.70137C13.7334 5.2347 13.4001 5.90137 13.0667 6.2347L10.2001 8.76803C9.80006 9.10137 9.53339 9.76803 9.53339 10.3014V13.168C9.53339 13.568 9.26672 14.1014 8.93339 14.3014L8.00006 14.9014C7.13339 15.4347 5.93339 14.8347 5.93339 13.768V10.2347C5.93339 9.76803 5.66672 9.16803 5.40006 8.8347L2.86672 6.16803C2.53339 5.8347 2.26672 5.2347 2.26672 4.8347V3.30137C2.26672 2.50137 2.86672 1.90137 3.60006 1.90137H9.60006M7.28672 1.90137L4.00006 7.16803" stroke="black" strokeWidth="1.5" stroke-miterlimit="10" stroke-linecap="round" stroke-linejoin="round"/>
</svg>
