<svg width="40" height="40" viewBox="0 0 40 40" fill="none" xmlns="http://www.w3.org/2000/svg">
<path d="M19.9999 14.441V17.771M28.5899 23.17C29.3199 24.39 28.7399 25.97 27.3899 26.42C22.6086 28.01 17.4412 28.01 12.6599 26.42C11.2199 25.94 10.6699 24.48 11.4599 23.17L12.7299 21.05C13.0799 20.47 13.3599 19.44 13.3599 18.77V16.67C13.3586 15.7946 13.5299 14.9274 13.864 14.1183C14.1981 13.3091 14.6885 12.5737 15.3071 11.9542C15.9256 11.3347 16.6603 10.8432 17.4689 10.5079C18.2776 10.1726 19.1445 10 20.0199 10C23.6799 10 26.6799 13 26.6799 16.66V18.76C26.6799 18.94 26.6999 19.14 26.7299 19.35" stroke="#272727" stroke-opacity="0.5" stroke-width="1.5" stroke-miterlimit="10" stroke-linecap="round"/>
<path d="M23.3299 26.82C23.3299 28.65 21.8299 30.15 19.9999 30.15C19.0899 30.15 18.2499 29.77 17.6499 29.17C17.0499 28.57 16.6699 27.73 16.6699 26.82" stroke="#272727" stroke-opacity="0.5" stroke-width="1.5" stroke-miterlimit="10"/>
</svg>
